<?xml version="1.0" encoding="utf-8"?>
<!-- Generator: Adobe Illustrator 18.1.0, SVG Export Plug-In . SVG Version: 6.00 Build 0)  -->
<svg version="1.1" id="Layer_1" xmlns="http://www.w3.org/2000/svg" xmlns:xlink="http://www.w3.org/1999/xlink" x="0px" y="0px"
	 viewBox="0 0 1280 800" enable-background="new 0 0 1280 800" xml:space="preserve">
<g opacity="0.5">
	<g>
		<line fill="none" stroke="#444342" stroke-miterlimit="10" x1="573.5" y1="-34" x2="573.5" y2="-30"/>
		<line fill="none" stroke="#444342" stroke-miterlimit="10" stroke-dasharray="8,8" x1="573.5" y1="-23" x2="573.5" y2="308"/>
		<line fill="none" stroke="#444342" stroke-miterlimit="10" x1="573.5" y1="312" x2="573.5" y2="316"/>
	</g>
</g>
<g opacity="0.5">
	<g>
		<line fill="none" stroke="#444342" stroke-miterlimit="10" x1="1045.5" y1="216" x2="1045.5" y2="220"/>
		<line fill="none" stroke="#444342" stroke-miterlimit="10" stroke-dasharray="8,8" x1="1045.5" y1="227" x2="1045.5" y2="558"/>
		<line fill="none" stroke="#444342" stroke-miterlimit="10" x1="1045.5" y1="562" x2="1045.5" y2="566"/>
	</g>
</g>
<g id="map">
	<polygon fill-rule="evenodd" clip-rule="evenodd" fill="#B2A8A1" points="1046.6,553.7 726.2,738.7 253.5,465.8 253.5,462.8 
		1046.6,550.7 	"/>
	<polygon fill-rule="evenodd" clip-rule="evenodd" fill="#E4DDD7" points="1046.6,550.7 726.2,735.7 253.5,462.8 573.9,277.8 	"/>
	<polygon fill-rule="evenodd" clip-rule="evenodd" fill="#FFFFFF" points="544.2,294.7 657.7,448.9 672.4,445.4 556.2,287.8 	"/>
	<path fill="#FFFFFF" d="M671,432.9c19.6,7.6,55.5,21,106.9,27.8c32.4,4.2,71,5.9,115.9,1.8l14.6,8.5c-52.3,5.7-97.2,4.1-134.3-0.8
		C719.6,463,682,449,661.4,441L671,432.9z"/>
	<polygon fill-rule="evenodd" clip-rule="evenodd" fill="#FFFFFF" points="671,333.9 607.3,667.1 613.9,670.9 623.6,665.3 
		685.3,342.1 	"/>
	<polygon fill-rule="evenodd" clip-rule="evenodd" fill="#FFFFFF" points="839.2,540.8 479.1,332.6 467.9,339 828,547.3 	"/>
	<polygon fill-rule="evenodd" clip-rule="evenodd" fill="#FFFFFF" points="753.2,381.4 432.8,566.4 444,572.8 764.4,387.8 	"/>
	<path fill-rule="evenodd" clip-rule="evenodd" fill="#FFFFFF" d="M625.2,423.7c18.2-10.5,47.7-10.6,65.9-0.1
		c18.2,10.5,18.1,27.5-0.1,38.1c-18.2,10.5-47.7,10.6-65.9,0.1C606.9,451.3,607,434.2,625.2,423.7z"/>
	<path fill-rule="evenodd" clip-rule="evenodd" fill="#C3E691" d="M636,429.9c12.3-7.1,32.2-7.1,44.4,0c12.2,7.1,12.2,18.6-0.1,25.6
		c-12.3,7.1-32.2,7.1-44.4,0C623.6,448.5,623.7,437,636,429.9z"/>
	<polygon fill-rule="evenodd" clip-rule="evenodd" fill="#FFFFFF" points="651.6,518.4 648.7,509.5 462.6,551.4 465.6,560.3 	"/>
	<polygon fill-rule="evenodd" clip-rule="evenodd" fill="#FFFFFF" points="738.8,626.2 724.3,617 559.5,639.5 572.7,647.1 	"/>
	<polygon fill-rule="evenodd" clip-rule="evenodd" fill="#FFFFFF" points="606.2,412.8 595.4,406.2 331.7,508 342.9,514.5 	"/>
	<polygon fill-rule="evenodd" clip-rule="evenodd" fill="#FFFFFF" points="422.5,560.4 415.8,484.8 401.2,481.2 407.5,551.7 	"/>
	<polygon fill-rule="evenodd" clip-rule="evenodd" fill="#FFFFFF" points="416.7,534 414.9,523.7 381.1,536.5 392.6,543.2 	"/>
	<polygon fill-rule="evenodd" clip-rule="evenodd" fill="#FFFFFF" points="416.6,557 416,553.9 413.1,555 	"/>
	<polygon fill-rule="evenodd" clip-rule="evenodd" fill="#FFFFFF" points="447.2,468.2 461.8,465.9 451.6,348.4 437.5,356.5 	"/>
	<polygon fill-rule="evenodd" clip-rule="evenodd" fill="#FFFFFF" points="523.1,518.3 538.3,515.9 461.2,463.4 446,465.8 	"/>
	<polygon fill-rule="evenodd" clip-rule="evenodd" fill="#FFFFFF" points="496.9,485.7 483.5,479 404.1,524.8 404.7,538.9 	"/>
	<polygon fill-rule="evenodd" clip-rule="evenodd" fill="#FFFFFF" points="620.4,418.2 609.2,410.1 477.1,482.5 488.3,490.6 	"/>
	<polygon fill-rule="evenodd" clip-rule="evenodd" fill="#FFFFFF" points="562.9,500.4 573,492 525.8,465.2 517,474.4 	"/>
	<polygon fill-rule="evenodd" clip-rule="evenodd" fill="#FFFFFF" points="601.3,476.7 611.4,468.3 564.2,441.6 555.4,450.7 	"/>
	<polygon fill-rule="evenodd" clip-rule="evenodd" fill="#FFFFFF" points="454.1,435.8 452.2,425.5 298.4,488.8 309.7,495.3 	"/>
	<polygon fill-rule="evenodd" clip-rule="evenodd" fill="#FFFFFF" points="390.6,454.1 406.6,449.7 379.2,390 365,398.2 	"/>
	<polygon fill-rule="evenodd" clip-rule="evenodd" fill="#FFFFFF" points="774.8,507.2 763.2,501 634.1,557 645.7,563.1 	"/>
	<polygon fill-rule="evenodd" clip-rule="evenodd" fill="#FFFFFF" points="666.3,592.8 684.6,587 689.1,538.6 670.8,544.3 	"/>
	<polygon fill-rule="evenodd" clip-rule="evenodd" fill="#FFFFFF" points="781.3,468.4 798.1,464.8 764,387.6 761.5,386.1 
		746.3,389.4 	"/>
	<polygon fill-rule="evenodd" clip-rule="evenodd" fill="#FFFFFF" points="1003.6,575.1 786.3,461.9 775.2,469.7 991.2,582.2 	"/>
	<polygon fill-rule="evenodd" clip-rule="evenodd" fill="#FFFFFF" points="861.7,504.1 850.1,498 804.1,526.6 815.8,532.7 	"/>
	<polygon fill-rule="evenodd" clip-rule="evenodd" fill="#FFFFFF" points="794.6,469.8 778.6,461.1 754.4,500.8 770.4,509.5 	"/>
	<polygon fill-rule="evenodd" clip-rule="evenodd" fill="#FFFFFF" points="723.2,477.9 713.9,469.2 634.9,514.7 645.7,522.7 	"/>
	<polygon fill-rule="evenodd" clip-rule="evenodd" fill="#FFFFFF" points="593.9,352.4 607,359.3 665.1,330.5 653.8,323.9 	"/>
	<polygon fill-rule="evenodd" clip-rule="evenodd" fill="#FFFFFF" points="624.8,341.2 643.1,335.4 627.2,308.6 615.9,302 
		595.9,290.7 	"/>
	<polygon fill-rule="evenodd" clip-rule="evenodd" fill="#FFFFFF" points="618.1,390.1 631.2,396.9 675.6,368.7 675.1,357.4 	"/>
	<polygon fill-rule="evenodd" clip-rule="evenodd" fill="#C3E691" points="643.3,561.9 670,552.6 667,584.9 636.3,598.5 	"/>
	<polygon fill-rule="evenodd" clip-rule="evenodd" fill="#C3E691" points="419.8,530.1 422.5,560.4 432.8,566.4 519.8,516.1 
		484.5,492 	"/>
	<polygon fill-rule="evenodd" clip-rule="evenodd" fill="#D4CBBA" points="530.1,467.7 567.3,488.7 594.6,472.9 558.2,452.3 	"/>
	<polygon fill-rule="evenodd" clip-rule="evenodd" fill="#D4CBBA" points="581.1,322.1 601,349 623.2,338.5 605.3,308.2 	"/>
	<polygon fill-rule="evenodd" clip-rule="evenodd" fill="#D4CBBA" points="402.1,491.6 403.7,509 361.4,525.1 360,524.3 
		356.2,509.3 	"/>
	<polygon fill-rule="evenodd" clip-rule="evenodd" fill="#FFFFFF" points="806.9,412.4 764.9,418.8 769.2,427.5 819.9,419.8 	"/>
	<polygon fill-rule="evenodd" clip-rule="evenodd" fill="#FFFFFF" points="862.4,472 877.9,470.2 865,445.9 841.2,432.1 	"/>
	<polygon fill-rule="evenodd" clip-rule="evenodd" fill="#FFFFFF" points="853.3,439.1 854.7,443 859.1,442.5 	"/>
	<path fill-rule="evenodd" clip-rule="evenodd" fill="#C3E691" d="M865,445.9l9.6,18c0,0,8-0.4,14.6-1c1.5-0.1,3.1-0.3,4.6-0.4
		L865,445.9z"/>
	<polygon fill-rule="evenodd" clip-rule="evenodd" fill="#D4CBBA" points="461.1,458 458.4,427.4 512.6,406.1 525.4,433.2 	"/>
	<polygon fill-rule="evenodd" clip-rule="evenodd" fill="#D4CBBA" points="599.4,415.5 483.9,478.8 466.3,466.8 	"/>
	<polygon fill-rule="evenodd" clip-rule="evenodd" fill="#FFFFFF" points="816.9,530 805.3,523.8 625,603.5 632.4,611.9 	"/>
	<polygon fill-rule="evenodd" clip-rule="evenodd" fill="#D4CBBA" points="725.8,608.5 690.2,586.3 746.6,561.2 775.8,579.6 	"/>
	<polygon fill-rule="evenodd" clip-rule="evenodd" fill="#FFFFFF" points="862.2,657.2 616.6,672.5 610,668.7 619.7,663.1 
		880.9,646.4 	"/>
	<polygon fill-rule="evenodd" clip-rule="evenodd" fill="#FFFFFF" points="835.4,538.6 951.1,605.4 939.9,611.8 824.2,545.1 	"/>
	<polygon fill-rule="evenodd" clip-rule="evenodd" fill="#FFFFFF" points="733,664.5 749.1,663.6 724.7,734.9 711.5,727.2 	"/>
	<polygon fill-rule="evenodd" clip-rule="evenodd" fill="#FFFFFF" points="893.6,575.7 904.3,582.5 807.3,657 796.7,650.3 	"/>
	<polygon fill-rule="evenodd" clip-rule="evenodd" fill="#FFFFFF" points="854.1,551.4 864.8,558.1 726.8,662.3 710.4,659 	"/>
	<polygon fill-rule="evenodd" clip-rule="evenodd" fill="#FFFFFF" points="745.3,638.4 755.3,627.8 839.2,625.2 829.2,635.8 	"/>
	<polygon fill-rule="evenodd" clip-rule="evenodd" fill="#FFFFFF" points="898.9,525.6 909.6,532.3 860,558.8 849.3,552.1 	"/>
	<polygon fill-rule="evenodd" clip-rule="evenodd" fill="#FFFFFF" points="958.4,564.4 973.4,573.6 904.6,587.5 889.6,578.3 	"/>
	<polygon fill-rule="evenodd" clip-rule="evenodd" fill="#FFFFFF" points="687.9,585 759.5,626.3 752,636.6 675.7,591.3 	"/>
	<polygon fill-rule="evenodd" clip-rule="evenodd" fill="#C3E691" points="798.8,651.7 814.9,636.2 759,638 735.5,655.7 	"/>
	<polygon fill-rule="evenodd" clip-rule="evenodd" fill="#FFFFFF" points="882.2,515.9 861.7,504.1 999.8,523.7 1023.6,537.4 	"/>
	<polygon fill-rule="evenodd" clip-rule="evenodd" fill="#FFFFFF" points="1011.5,530.4 1004.8,529.6 1005.6,527.1 	"/>
	<polygon fill-rule="evenodd" clip-rule="evenodd" fill="#C3E691" points="999.8,523.7 869.5,505.2 930.5,483.7 	"/>
</g>
<g id="base">
	<polygon fill-rule="evenodd" clip-rule="evenodd" fill="#C44C31" points="1046.1,550.7 648.2,691 648.2,693.7 725.6,738.7 
		1046.1,553.7 	"/>
	<g>
		<defs>
			<polygon id="SVGID_1_" points="958.1,499.9 637.7,684.9 725.6,735.7 1046.1,550.7 			"/>
		</defs>
		<clipPath id="SVGID_2_">
			<use xlink:href="#SVGID_1_"  overflow="visible"/>
		</clipPath>
		<g clip-path="url(#SVGID_2_)">
			<path fill-rule="evenodd" clip-rule="evenodd" fill="#D75537" d="M992.3,492.3c-6.4,1.9-7.4-0.3-13.1,3
				c-5.8,3.3-3.8,6.8-9.6,10.1c-5.8,3.3-7.8-0.1-13.6,3.2c-5.8,3.3-3.8,6.8-9.6,10.1c-5.8,3.3-7.8-0.1-13.6,3.2
				c-5.8,3.3-3.8,6.8-9.6,10.1s-7.8-0.1-13.6,3.2c-5.8,3.3-3.8,6.8-9.6,10.1s-7.8-0.1-13.6,3.2s-3.8,6.8-9.6,10.1
				c-5.8,3.3-7.8-0.1-13.6,3.2s-3.8,6.8-9.6,10.1c-5.8,3.3-7.8-0.1-13.6,3.2c-5.8,3.3-3.8,6.8-9.6,10.1c-5.8,3.3-7.8-0.1-13.6,3.2
				c-5.8,3.3-3.8,6.8-9.6,10.1c-5.8,3.3-7.8-0.1-13.6,3.2s-3.8,6.8-9.6,10.1c-5.8,3.3-7.8-0.1-13.6,3.2c-5.8,3.3-3.8,6.8-9.6,10.1
				c-5.8,3.3-7.8-0.1-13.6,3.2c-5.8,3.3-3.8,6.8-9.6,10.1s-7.8-0.1-13.6,3.2c-5.8,3.3-3.8,6.8-9.6,10.1s-7.8-0.1-13.6,3.2
				s-3.8,6.8-9.6,10.1c-5.8,3.3-7.8-0.1-13.6,3.2s-3.8,6.8-9.6,10.1c-5.8,3.3-7.8-0.1-13.6,3.2c-5.8,3.3-3.8,6.8-9.6,10.1
				c-5.8,3.3-7.8-0.1-13.6,3.2s-4.7,4.7-9.1,9.7c-1.4,1.6-0.6,1.5,1.3,2.6c1.9,1.1,3.9-2.4,5.8-1.3c1.9,1.1-0.1,4.6,1.8,5.7
				c1.9,1.1,3.9-2.4,5.8-1.3c1.9,1.1-0.1,4.6,1.8,5.7c1.9,1.1,3.9-2.4,5.8-1.3c1.9,1.1-0.1,4.6,1.8,5.7c1.9,1.1,3.9-2.4,5.8-1.3
				c1.9,1.1-0.1,4.6,1.8,5.7c1.9,1.1,3.9-2.4,5.8-1.3c1.9,1.1-0.1,4.6,1.8,5.7c1.9,1.1,3.9-2.4,5.8-1.3c1.9,1.1-0.1,4.6,1.8,5.7
				c1.9,1.1,3.9-2.4,5.8-1.3c1.9,1.1-0.1,4.6,1.8,5.7c1.9,1.1,3.9-2.4,5.8-1.3c1.9,1.1-0.1,4.6,1.8,5.7c1.9,1.1,3.9-2.4,5.8-1.3
				c1.9,1.1-0.1,4.6,1.8,5.7c1.9,1.1,3.9-2.4,5.8-1.3c1.9,1.1-0.1,4.6,1.8,5.7c1.9,1.1,3.9-2.4,5.8-1.3c1.9,1.1-0.1,4.6,1.8,5.7
				c1.9,1.1,3.9-2.4,5.8-1.3c1.9,1.1-0.1,4.6,1.8,5.7c1.9,1.1,3.9-2.4,5.8-1.3c1.9,1.1-0.1,4.6,1.8,5.7c1.9,1.1,3.9-2.4,5.8-1.3
				c1.9,1.1-0.1,4.6,1.8,5.7c1.9,1.1,3.9-2.4,5.8-1.3c1.9,1.1-0.1,4.6,1.8,5.7c1.9,1.1,2.1-0.8,4.2-1.5c6.4-1.9,7.4,0.3,13.1-3
				c5.8-3.3,3.8-6.8,9.6-10.1s7.8,0.1,13.6-3.2c5.8-3.3,3.8-6.8,9.6-10.1c5.8-3.3,7.8,0.1,13.6-3.2s3.8-6.8,9.6-10.1
				c5.8-3.3,7.8,0.1,13.6-3.2s3.8-6.8,9.6-10.1c5.8-3.3,7.8,0.1,13.6-3.2s3.8-6.8,9.6-10.1s7.8,0.1,13.6-3.2
				c5.8-3.3,3.8-6.8,9.6-10.1s7.8,0.1,13.6-3.2c5.8-3.3,3.8-6.8,9.6-10.1s7.8,0.1,13.6-3.2c5.8-3.3,3.8-6.8,9.6-10.1
				c5.8-3.3,7.8,0.1,13.6-3.2c5.8-3.3,3.8-6.8,9.6-10.1s7.8,0.1,13.6-3.2c5.8-3.3,3.8-6.8,9.6-10.1c5.8-3.3,7.8,0.1,13.6-3.2
				s3.8-6.8,9.6-10.1c5.8-3.3,7.8,0.1,13.6-3.2s3.8-6.8,9.6-10.1c5.8-3.3,7.8,0.1,13.6-3.2c5.8-3.3,3.8-6.8,9.6-10.1
				c5.8-3.3,7.8,0.1,13.6-3.2c5.8-3.3,3.8-6.8,9.6-10.1c5.8-3.3,7.8,0.1,13.6-3.2c5.8-3.3,3.8-6.8,9.6-10.1
				c5.8-3.3,7.8,0.1,13.6-3.2c5.8-3.3,4.7-4.7,9.1-9.7c1.4-1.6,0.6-1.5-1.3-2.6c-1.9-1.1-3.9,2.4-5.8,1.3c-1.9-1.1,0.1-4.6-1.8-5.7
				c-1.9-1.1-3.9,2.4-5.8,1.3c-1.9-1.1,0.1-4.6-1.8-5.7c-1.9-1.1-3.9,2.4-5.8,1.3c-1.9-1.1,0.1-4.6-1.8-5.7
				c-1.9-1.1-3.9,2.4-5.8,1.3c-1.9-1.1,0.1-4.6-1.8-5.7s-3.9,2.4-5.8,1.3c-1.9-1.1,0.1-4.6-1.8-5.7c-1.9-1.1-3.9,2.4-5.8,1.3
				c-1.9-1.1,0.1-4.6-1.8-5.7c-1.9-1.1-3.9,2.4-5.8,1.3s0.1-4.6-1.8-5.7c-1.9-1.1-3.9,2.4-5.8,1.3c-1.9-1.1,0.1-4.6-1.8-5.7
				c-1.9-1.1-3.9,2.4-5.8,1.3c-1.9-1.1,0.1-4.6-1.8-5.7c-1.9-1.1-3.9,2.4-5.8,1.3s0.1-4.6-1.8-5.7c-1.9-1.1-3.9,2.4-5.8,1.3
				c-1.9-1.1,0.1-4.6-1.8-5.7c-1.9-1.1-3.9,2.4-5.8,1.3s0.1-4.6-1.8-5.7c-1.9-1.1-3.9,2.4-5.8,1.3c-1.9-1.1,0.1-4.6-1.8-5.7
				c-1.9-1.1-3.9,2.4-5.8,1.3c-1.9-1.1,0.1-4.6-1.8-5.7c-1.9-1.1-3.9,2.4-5.8,1.3c-1.9-1.1,0.1-4.5-1.7-5.6
				C995.2,490,994.4,491.7,992.3,492.3z"/>
		</g>
	</g>
</g>
<g id="icons">
	<g>
		<defs>
			<polygon id="SVGID_3_" points="367,531.4 687.5,346.4 676.8,340.2 676.7,337.2 573.7,280.7 253.3,462.7 253.3,465.7 			"/>
		</defs>
		<clipPath id="SVGID_4_">
			<use xlink:href="#SVGID_3_"  overflow="visible"/>
		</clipPath>
		<g clip-path="url(#SVGID_4_)">
			<path fill-rule="evenodd" clip-rule="evenodd" fill="#D1C2A6" d="M332.8,538.9c6.4-1.9,7.4,0.3,13.1-3c5.8-3.3,3.8-6.8,9.6-10.1
				s7.8,0.1,13.6-3.2c5.8-3.3,3.8-6.8,9.6-10.1c5.8-3.3,7.8,0.1,13.6-3.2c5.8-3.3,3.8-6.8,9.6-10.1c5.8-3.3,7.8,0.1,13.6-3.2
				c5.8-3.3,3.8-6.8,9.6-10.1c5.8-3.3,7.8,0.1,13.6-3.2c5.8-3.3,3.8-6.8,9.6-10.1c5.8-3.3,7.8,0.1,13.6-3.2
				c5.8-3.3,3.8-6.8,9.6-10.1c5.8-3.3,7.8,0.1,13.6-3.2c5.8-3.3,3.8-6.8,9.6-10.1c5.8-3.3,7.8,0.1,13.6-3.2
				c5.8-3.3,3.8-6.8,9.6-10.1c5.8-3.3,7.8,0.1,13.6-3.2c5.8-3.3,3.8-6.8,9.6-10.1c5.8-3.3,7.8,0.1,13.6-3.2
				c5.8-3.3,3.8-6.8,9.6-10.1c5.8-3.3,7.8,0.1,13.6-3.2c5.8-3.3,3.8-6.8,9.6-10.1c5.8-3.3,7.8,0.1,13.6-3.2
				c5.8-3.3,3.8-6.8,9.6-10.1c5.8-3.3,7.8,0.1,13.6-3.2c5.8-3.3,3.8-6.8,9.6-10.1c5.8-3.3,7.8,0.1,13.6-3.2
				c5.8-3.3,3.8-6.8,9.6-10.1c5.8-3.3,7.8,0.1,13.6-3.2c5.8-3.3,3.8-6.8,9.6-10.1c5.8-3.3,7.8,0.1,13.6-3.2c5.8-3.3,4.7-4.7,9.1-9.7
				c1.4-1.6,0.6-1.5-1.3-2.6c-1.9-1.1-3.9,2.4-5.8,1.3c-1.9-1.1,0.1-4.6-1.8-5.7s-3.9,2.4-5.8,1.3c-1.9-1.1,0.1-4.6-1.8-5.7
				c-1.9-1.1-3.9,2.4-5.8,1.3c-1.9-1.1,0.1-4.6-1.8-5.7c-1.9-1.1-3.9,2.4-5.8,1.3c-1.9-1.1,0.1-4.6-1.8-5.7
				c-1.9-1.1-3.9,2.4-5.8,1.3c-1.9-1.1,0.1-4.6-1.8-5.7c-1.9-1.1-3.9,2.4-5.8,1.3c-1.9-1.1,0.1-4.6-1.8-5.7
				c-1.9-1.1-3.9,2.4-5.8,1.3c-1.9-1.1,0.1-4.6-1.8-5.7c-1.9-1.1-3.9,2.4-5.8,1.3c-1.9-1.1,0.1-4.6-1.8-5.7
				c-1.9-1.1-3.9,2.4-5.8,1.3c-1.9-1.1,0.1-4.6-1.8-5.7c-1.9-1.1-3.9,2.4-5.8,1.3c-1.9-1.1,0.1-4.6-1.8-5.7
				c-1.9-1.1-3.9,2.4-5.8,1.3c-1.9-1.1,0.1-4.6-1.8-5.7c-1.9-1.1-3.9,2.4-5.8,1.3c-1.9-1.1,0.1-4.6-1.8-5.7
				c-1.9-1.1-3.9,2.4-5.8,1.3c-1.9-1.1,0.1-4.6-1.8-5.7c-1.9-1.1-3.9,2.4-5.8,1.3c-1.9-1.1,0.1-4.6-1.8-5.7s-3.9,2.4-5.8,1.3
				c-1.9-1.1,0.1-4.6-1.8-5.7c-1.9-1.1-2.1,0.8-4.2,1.5c-6.4,1.9-7.4-0.3-13.1,3c-5.8,3.3-3.8,6.8-9.6,10.1
				c-5.8,3.3-7.8-0.1-13.6,3.2c-5.8,3.3-3.8,6.8-9.6,10.1s-7.8-0.1-13.6,3.2c-5.8,3.3-3.8,6.8-9.6,10.1c-5.8,3.3-7.8-0.1-13.6,3.2
				c-5.8,3.3-3.8,6.8-9.6,10.1c-5.8,3.3-7.8-0.1-13.6,3.2c-5.8,3.3-3.8,6.8-9.6,10.1c-5.8,3.3-7.8-0.1-13.6,3.2
				c-5.8,3.3-3.8,6.8-9.6,10.1c-5.8,3.3-7.8-0.1-13.6,3.2c-5.8,3.3-3.8,6.8-9.6,10.1c-5.8,3.3-7.8-0.1-13.6,3.2
				c-5.8,3.3-3.8,6.8-9.6,10.1c-5.8,3.3-7.8-0.1-13.6,3.2c-5.8,3.3-3.8,6.8-9.6,10.1c-5.8,3.3-7.8-0.1-13.6,3.2
				c-5.8,3.3-3.8,6.8-9.6,10.1c-5.8,3.3-7.8-0.1-13.6,3.2c-5.8,3.3-3.8,6.8-9.6,10.1c-5.8,3.3-7.8-0.1-13.6,3.2
				c-5.8,3.3-3.8,6.8-9.6,10.1c-5.8,3.3-7.8-0.1-13.6,3.2c-5.8,3.3-3.8,6.8-9.6,10.1c-5.8,3.3-7.8-0.1-13.6,3.2
				c-5.8,3.3-3.8,6.8-9.6,10.1c-5.8,3.3-7.8-0.1-13.6,3.2c-5.8,3.3-3.8,6.8-9.6,10.1c-5.8,3.3-7.8-0.1-13.6,3.2
				c-5.8,3.3-4.7,4.7-9.1,9.7c-1.4,1.6-0.6,1.5,1.3,2.6c1.9,1.1,3.9-2.4,5.8-1.3s-0.1,4.6,1.8,5.7s3.9-2.4,5.8-1.3s-0.1,4.6,1.8,5.7
				s3.9-2.4,5.8-1.3c1.9,1.1-0.1,4.6,1.8,5.7c1.9,1.1,3.9-2.4,5.8-1.3s-0.1,4.6,1.8,5.7s3.9-2.4,5.8-1.3s-0.1,4.6,1.8,5.7
				s3.9-2.4,5.8-1.3c1.9,1.1-0.1,4.6,1.8,5.7c1.9,1.1,3.9-2.4,5.8-1.3s-0.1,4.6,1.8,5.7s3.9-2.4,5.8-1.3s-0.1,4.6,1.8,5.7
				s3.9-2.4,5.8-1.3c1.9,1.1-0.1,4.6,1.8,5.7c1.9,1.1,3.9-2.4,5.8-1.3c1.9,1.1-0.1,4.6,1.8,5.7c1.9,1.1,3.9-2.4,5.8-1.3
				c1.9,1.1-0.1,4.6,1.8,5.7c1.9,1.1,3.9-2.4,5.8-1.3c1.9,1.1-0.1,4.6,1.8,5.7c1.9,1.1,3.9-2.4,5.8-1.3c1.9,1.1-0.1,4.6,1.8,5.7
				c1.9,1.1,3.9-2.4,5.8-1.3c1.9,1.1-0.1,4.6,1.8,5.7c1.9,1.1,3.9-2.4,5.8-1.3c1.9,1.1-0.1,4.5,1.7,5.6
				C329.9,541.2,330.7,539.5,332.8,538.9z"/>
		</g>
	</g>
	<g>
		<defs>
			<polygon id="SVGID_5_" points="367,528.4 687.5,343.4 573.7,277.7 253.3,462.7 			"/>
		</defs>
		<clipPath id="SVGID_6_">
			<use xlink:href="#SVGID_5_"  overflow="visible"/>
		</clipPath>
		<g clip-path="url(#SVGID_6_)">
			<path fill-rule="evenodd" clip-rule="evenodd" fill="#EFF0DF" d="M332.8,535.9c6.4-1.9,7.4,0.3,13.1-3c5.8-3.3,3.8-6.8,9.6-10.1
				s7.8,0.1,13.6-3.2c5.8-3.3,3.8-6.8,9.6-10.1c5.8-3.3,7.8,0.1,13.6-3.2c5.8-3.3,3.8-6.8,9.6-10.1c5.8-3.3,7.8,0.1,13.6-3.2
				c5.8-3.3,3.8-6.8,9.6-10.1c5.8-3.3,7.8,0.1,13.6-3.2c5.8-3.3,3.8-6.8,9.6-10.1c5.8-3.3,7.8,0.1,13.6-3.2
				c5.8-3.3,3.8-6.8,9.6-10.1c5.8-3.3,7.8,0.1,13.6-3.2c5.8-3.3,3.8-6.8,9.6-10.1c5.8-3.3,7.8,0.1,13.6-3.2
				c5.8-3.3,3.8-6.8,9.6-10.1c5.8-3.3,7.8,0.1,13.6-3.2c5.8-3.3,3.8-6.8,9.6-10.1c5.8-3.3,7.8,0.1,13.6-3.2
				c5.8-3.3,3.8-6.8,9.6-10.1c5.8-3.3,7.8,0.1,13.6-3.2c5.8-3.3,3.8-6.8,9.6-10.1c5.8-3.3,7.8,0.1,13.6-3.2
				c5.8-3.3,3.8-6.8,9.6-10.1c5.8-3.3,7.8,0.1,13.6-3.2c5.8-3.3,3.8-6.8,9.6-10.1c5.8-3.3,7.8,0.1,13.6-3.2
				c5.8-3.3,3.8-6.8,9.6-10.1c5.8-3.3,7.8,0.1,13.6-3.2c5.8-3.3,3.8-6.8,9.6-10.1c5.8-3.3,7.8,0.1,13.6-3.2c5.8-3.3,4.7-4.7,9.1-9.7
				c1.4-1.6,0.6-1.5-1.3-2.6c-1.9-1.1-3.9,2.4-5.8,1.3c-1.9-1.1,0.1-4.6-1.8-5.7s-3.9,2.4-5.8,1.3c-1.9-1.1,0.1-4.6-1.8-5.7
				c-1.9-1.1-3.9,2.4-5.8,1.3c-1.9-1.1,0.1-4.6-1.8-5.7c-1.9-1.1-3.9,2.4-5.8,1.3c-1.9-1.1,0.1-4.6-1.8-5.7
				c-1.9-1.1-3.9,2.4-5.8,1.3c-1.9-1.1,0.1-4.6-1.8-5.7c-1.9-1.1-3.9,2.4-5.8,1.3c-1.9-1.1,0.1-4.6-1.8-5.7
				c-1.9-1.1-3.9,2.4-5.8,1.3c-1.9-1.1,0.1-4.6-1.8-5.7c-1.9-1.1-3.9,2.4-5.8,1.3c-1.9-1.1,0.1-4.6-1.8-5.7
				c-1.9-1.1-3.9,2.4-5.8,1.3c-1.9-1.1,0.1-4.6-1.8-5.7c-1.9-1.1-3.9,2.4-5.8,1.3c-1.9-1.1,0.1-4.6-1.8-5.7
				c-1.9-1.1-3.9,2.4-5.8,1.3c-1.9-1.1,0.1-4.6-1.8-5.7c-1.9-1.1-3.9,2.4-5.8,1.3c-1.9-1.1,0.1-4.6-1.8-5.7
				c-1.9-1.1-3.9,2.4-5.8,1.3c-1.9-1.1,0.1-4.6-1.8-5.7c-1.9-1.1-3.9,2.4-5.8,1.3c-1.9-1.1,0.1-4.6-1.8-5.7s-3.9,2.4-5.8,1.3
				c-1.9-1.1,0.1-4.6-1.8-5.7c-1.9-1.1-2.1,0.8-4.2,1.5c-6.4,1.9-7.4-0.3-13.1,3c-5.8,3.3-3.8,6.8-9.6,10.1
				c-5.8,3.3-7.8-0.1-13.6,3.2c-5.8,3.3-3.8,6.8-9.6,10.1s-7.8-0.1-13.6,3.2c-5.8,3.3-3.8,6.8-9.6,10.1c-5.8,3.3-7.8-0.1-13.6,3.2
				c-5.8,3.3-3.8,6.8-9.6,10.1c-5.8,3.3-7.8-0.1-13.6,3.2c-5.8,3.3-3.8,6.8-9.6,10.1c-5.8,3.3-7.8-0.1-13.6,3.2
				c-5.8,3.3-3.8,6.8-9.6,10.1c-5.8,3.3-7.8-0.1-13.6,3.2c-5.8,3.3-3.8,6.8-9.6,10.1c-5.8,3.3-7.8-0.1-13.6,3.2
				c-5.8,3.3-3.8,6.8-9.6,10.1c-5.8,3.3-7.8-0.1-13.6,3.2c-5.8,3.3-3.8,6.8-9.6,10.1c-5.8,3.3-7.8-0.1-13.6,3.2
				c-5.8,3.3-3.8,6.8-9.6,10.1c-5.8,3.3-7.8-0.1-13.6,3.2c-5.8,3.3-3.8,6.8-9.6,10.1c-5.8,3.3-7.8-0.1-13.6,3.2
				c-5.8,3.3-3.8,6.8-9.6,10.1c-5.8,3.3-7.8-0.1-13.6,3.2c-5.8,3.3-3.8,6.8-9.6,10.1c-5.8,3.3-7.8-0.1-13.6,3.2
				c-5.8,3.3-3.8,6.8-9.6,10.1c-5.8,3.3-7.8-0.1-13.6,3.2c-5.8,3.3-3.8,6.8-9.6,10.1c-5.8,3.3-7.8-0.1-13.6,3.2
				c-5.8,3.3-4.7,4.7-9.1,9.7c-1.4,1.6-0.6,1.5,1.3,2.6c1.9,1.1,3.9-2.4,5.8-1.3s-0.1,4.6,1.8,5.7s3.9-2.4,5.8-1.3s-0.1,4.6,1.8,5.7
				s3.9-2.4,5.8-1.3c1.9,1.1-0.1,4.6,1.8,5.7c1.9,1.1,3.9-2.4,5.8-1.3s-0.1,4.6,1.8,5.7s3.9-2.4,5.8-1.3s-0.1,4.6,1.8,5.7
				s3.9-2.4,5.8-1.3c1.9,1.1-0.1,4.6,1.8,5.7c1.9,1.1,3.9-2.4,5.8-1.3s-0.1,4.6,1.8,5.7s3.9-2.4,5.8-1.3s-0.1,4.6,1.8,5.7
				s3.9-2.4,5.8-1.3c1.9,1.1-0.1,4.6,1.8,5.7c1.9,1.1,3.9-2.4,5.8-1.3s-0.1,4.6,1.8,5.7c1.9,1.1,3.9-2.4,5.8-1.3
				c1.9,1.1-0.1,4.6,1.8,5.7c1.9,1.1,3.9-2.4,5.8-1.3c1.9,1.1-0.1,4.6,1.8,5.7c1.9,1.1,3.9-2.4,5.8-1.3c1.9,1.1-0.1,4.6,1.8,5.7
				c1.9,1.1,3.9-2.4,5.8-1.3c1.9,1.1-0.1,4.6,1.8,5.7c1.9,1.1,3.9-2.4,5.8-1.3c1.9,1.1-0.1,4.5,1.7,5.6
				C329.9,538.2,330.7,536.5,332.8,535.9z"/>
		</g>
	</g>
	<path id="chat-icon" fill-rule="evenodd" clip-rule="evenodd" fill="#D1C2A6" d="M553.7,345.8c-11.6,6.7-11.6,17.5-0.1,24.1
		c11.5,6.6,30.2,6.6,41.8-0.1c11.6-6.7,11.6-17.5,0.1-24.1C584,339.1,565.3,339.1,553.7,345.8z M565.1,363l-4.2-2.4
		c-1.1-0.6-0.9-2.5,0.1-3.1l8.5-4.9c1.1-0.6,4.2-0.7,5.3,0l4.2,2.4c1.1,0.6,1.1,2.5,0,3.1l-5.3,3.1l-0.7,3.4l-3.2-1.8
		C568.9,363.3,566.1,363.6,565.1,363z M588.5,355.6c1.1,0.6,0.4,2.2-0.5,2.7l3.2,1.8l-6.9-0.1l-5.3,3.1c-1.1,0.6-3.3,1.1-4.3,0.5
		l-0.6-0.4l0-2.3l4.8-2.8c1.6-0.9,1.6-2.2,0-3.1l-1.6-0.9l1.6-0.9c1.1-0.6,4.4-0.7,5.5-0.1L588.5,355.6z"/>
	<path id="people-icon" fill-rule="evenodd" clip-rule="evenodd" fill="#D1C2A6" d="M370.2,451.8c-11.6,6.7-11.6,17.5-0.1,24.1
		s30.2,6.6,41.8-0.1c11.6-6.7,11.6-17.5,0.1-24.1S381.7,445.1,370.2,451.8z M379.3,456.9c1.1-0.6,2.9-0.6,4,0c1.1,0.6,1.1,1.7,0,2.3
		s-2.9,0.6-4,0C378.2,458.6,378.2,457.6,379.3,456.9z M397.2,462.1l-1.7,1l7.7,4.5l-5.2,3l-7.7-4.5l-1.7,1l-5.4-3.1
		c-1.5-0.8-1.8-2.7-0.4-3.5l2.7-1.6c1.5-0.9,4.9-0.8,6.3,0.1L397.2,462.1z"/>
	<path id="peopleBtn" fill-rule="evenodd" clip-rule="evenodd" fill="#E9E9E9" d="M415.7,448.8c13.7,7.9,13.6,20.8-0.2,28.8
		c-13.8,8-36.1,8-49.8,0.1s-13.6-20.8,0.2-28.8C379.7,440.9,402,440.9,415.7,448.8z"/>
	<path id="chatBtn" fill-rule="evenodd" clip-rule="evenodd" fill="#E9E9E9" d="M599.7,342.8c13.7,7.9,13.6,20.8-0.2,28.8
		c-13.8,8-36.1,8-49.8,0.1c-13.7-7.9-13.6-20.8,0.2-28.8S586,334.9,599.7,342.8z"/>
</g>
<g id="pin">
	<circle fill="#FFFFFF" cx="609.5" cy="145.6" r="27.1"/>
	<path fill="#F4A04E" d="M608.3,113.9c-13.6,0-34.1,6.2-34.1,31c0,12.4,27.3,55.8,34.1,68.3c6.8-12.4,34.1-55.8,34.1-68.3
		C642.5,120.1,622,113.9,608.3,113.9z M608.3,167.9c-12.7,0-22.9-10.3-22.9-22.9c0-12.7,10.3-22.9,22.9-22.9
		c12.7,0,22.9,10.3,22.9,22.9C631.3,157.6,621,167.9,608.3,167.9z"/>
	<g>
		<path fill="#F4A04E" d="M621.5,152.2h-27c-1.1,0-1.9,0.9-1.9,1.9c0,1.1,0.9,1.9,1.9,1.9h27c1.1,0,1.9-0.9,1.9-1.9
			C623.5,153,622.6,152.2,621.5,152.2z"/>
		<path fill="#F4A04E" d="M602.2,150.3h11.6c2.1,0,3.9-1.7,3.9-3.9c3.2,0,5.8-2.6,5.8-5.8c0-3.2-2.6-5.8-5.8-5.8v-1.9h-19.3v13.5
			C598.4,148.5,600.1,150.3,602.2,150.3z M621.5,140.6c0,2.1-1.7,3.9-3.9,3.9v-7.7C619.8,136.7,621.5,138.5,621.5,140.6z
			 M600.3,134.8h1.9v13.5c-1.1,0-1.9-0.9-1.9-1.9V134.8z"/>
	</g>
</g>
<g id="menu">
	<polygon fill="#494646" points="726,608.9 577.1,694.8 104.2,421.7 104.2,418.7 726.2,605.7 	"/>
	<polygon fill="#525250" points="726,605.9 577.1,691.8 104.2,418.7 253,332.8 	"/>
	<path fill-rule="evenodd" clip-rule="evenodd" fill="#494646" d="M216.6,429.2c10.1,5.8,10,15.3-0.1,21.1s-26.5,5.9-36.5,0.1
		s-10-15.3,0.1-21.1S206.6,423.4,216.6,429.2z"/>
	<line fill="none" stroke="#494646" stroke-width="2" stroke-miterlimit="10" x1="212.9" y1="466.5" x2="335.9" y2="395.5"/>
	<line fill="none" stroke="#BFBFBF" stroke-miterlimit="10" x1="213.1" y1="466.9" x2="336.1" y2="395.9"/>
	<g>
		<path fill="#BFBFBF" d="M225.1,416.1l1.6,0.9l-3.5,2l2.3,1.3l3.3-1.9l1.6,0.9l-3.3,1.9l4.3,2.5l-2,1.2l-9.8-5.7L225.1,416.1z"/>
		<path fill="#BFBFBF" d="M229.3,413.7l12.5,4.2l-2.1,1.2l-2.5-0.9l-2.6,1.5l1.6,1.5l-2.1,1.2l-7.2-7.2L229.3,413.7z M235.2,417.4
			l-5.4-2l0,0l3.5,3.1L235.2,417.4z"/>
		<path fill="#BFBFBF" d="M242.2,414.6L242.2,414.6l-5.8-5.1l2.1-1.2l7.6,7l-2.6,1.5l-12.1-4.4l2.1-1.2L242.2,414.6z"/>
		<path fill="#BFBFBF" d="M241.6,409.9c-0.6-0.4-0.9-0.8-1.2-1.2s-0.2-0.8,0-1.2c0.2-0.4,0.7-0.8,1.4-1.3c0.7-0.4,1.5-0.7,2.2-0.8
			c0.7-0.1,1.4-0.1,2.1,0c0.7,0.1,1.4,0.3,2.1,0.7c0.7,0.3,1.4,0.7,2.2,1.1c0.8,0.4,1.4,0.9,2,1.3c0.6,0.4,0.9,0.8,1.2,1.2
			c0.2,0.4,0.2,0.8,0,1.2c-0.2,0.4-0.7,0.8-1.4,1.2c-0.7,0.4-1.5,0.7-2.1,0.8c-0.7,0.1-1.4,0.1-2.1,0c-0.7-0.1-1.4-0.3-2.1-0.7
			c-0.7-0.3-1.4-0.7-2.2-1.1C242.8,410.7,242.2,410.3,241.6,409.9z M247.3,410.9c0.5,0.2,0.9,0.4,1.3,0.5c0.4,0.1,0.7,0.2,1,0.1
			c0.3,0,0.6-0.1,0.9-0.3c0.3-0.2,0.5-0.3,0.5-0.5c0-0.2,0-0.4-0.2-0.6c-0.2-0.2-0.5-0.5-0.9-0.8c-0.4-0.3-1-0.6-1.6-1
			c-0.7-0.4-1.2-0.7-1.7-0.9c-0.5-0.2-0.9-0.4-1.3-0.5c-0.4-0.1-0.7-0.2-1.1-0.1c-0.3,0-0.6,0.1-0.9,0.3c-0.3,0.2-0.5,0.3-0.5,0.5
			c0,0.2,0,0.4,0.2,0.6c0.2,0.2,0.5,0.5,0.9,0.8c0.4,0.3,1,0.6,1.6,1C246.2,410.4,246.8,410.7,247.3,410.9z"/>
		<path fill="#BFBFBF" d="M254.9,406.8c0.2,0.1,0.5,0.3,0.7,0.4c0.2,0.1,0.5,0.2,0.7,0.2c0.2,0,0.5,0,0.7,0c0.2,0,0.5-0.1,0.7-0.3
			c0.2-0.1,0.4-0.3,0.5-0.4c0.1-0.1,0.1-0.3,0-0.4c-0.1-0.1-0.2-0.3-0.4-0.4c-0.2-0.1-0.4-0.3-0.6-0.4l-6.9-4l2-1.2l6.9,4
			c0.6,0.4,1.1,0.7,1.3,1c0.2,0.3,0.3,0.7,0.3,1c-0.1,0.3-0.2,0.6-0.5,0.9c-0.3,0.3-0.6,0.5-1.1,0.8c-0.4,0.2-0.8,0.4-1.3,0.6
			c-0.5,0.2-0.9,0.3-1.5,0.3c-0.5,0-1.1,0-1.7-0.1c-0.6-0.1-1.2-0.4-1.9-0.8l-6.9-4l2-1.2L254.9,406.8z"/>
		<path fill="#BFBFBF" d="M257,397.7c0.8-0.5,1.7-0.7,2.6-0.8c0.9,0,1.7,0.2,2.6,0.7c0.7,0.4,1.1,0.8,1.2,1.2c0.2,0.4,0,0.8-0.4,1.2
			l0,0c0.6-0.2,1.1-0.4,1.6-0.4c0.5,0,1,0.2,1.6,0.4c0.2,0.1,0.4,0.2,0.6,0.3c0.2,0.1,0.5,0.3,0.8,0.4c0.5,0.3,1,0.5,1.3,0.6
			c0.3,0.1,0.6,0.2,0.9,0.1l0.1,0l-2.2,1.2c-0.2,0-0.5-0.1-0.7-0.2c-0.2-0.1-0.4-0.2-0.6-0.3l-1.9-1.1c-0.4-0.2-0.8-0.3-1.2-0.4
			c-0.4,0-0.8,0.1-1.2,0.3l-1.1,0.6l4.2,2.4l-2,1.2l-9.8-5.7L257,397.7z M260.4,400.7c0.5-0.3,0.7-0.6,0.8-0.8
			c0-0.3-0.2-0.6-0.7-0.9c-0.9-0.5-1.8-0.5-2.7,0l-0.9,0.5l2.8,1.6L260.4,400.7z"/>
		<path fill="#BFBFBF" d="M260.8,395.5l2-1.2l9.8,5.7l-2,1.2L260.8,395.5z"/>
		<path fill="#BFBFBF" d="M271.3,391.3l-2.2,1.2l8.2,4.7l-2,1.2l-8.2-4.7l-2.2,1.2l-1.6-0.9l6.3-3.6L271.3,391.3z"/>
		<path fill="#BFBFBF" d="M277.4,387.8l-3.5,2l2.3,1.3l3.3-1.9l1.6,0.9l-3.3,1.9l2.6,1.5l3.7-2.1l1.6,0.9l-5.7,3.3l-9.8-5.7l5.5-3.2
			L277.4,387.8z"/>
		<path fill="#BFBFBF" d="M285.2,389.6c0.2,0.1,0.5,0.2,0.7,0.3c0.2,0.1,0.5,0.1,0.7,0.2c0.2,0,0.5,0,0.7-0.1
			c0.2-0.1,0.5-0.2,0.8-0.3c0.3-0.2,0.5-0.4,0.5-0.6c0-0.3-0.1-0.5-0.5-0.7c-0.2-0.1-0.4-0.2-0.7-0.3c-0.2-0.1-0.5-0.1-0.7-0.1
			c-0.3,0-0.6,0-0.9,0.1c-0.3,0.1-0.7,0.2-1.2,0.3c-0.6,0.2-1.1,0.3-1.6,0.4c-0.5,0.1-1,0.1-1.4,0.1c-0.5,0-0.9-0.1-1.3-0.2
			c-0.4-0.1-0.8-0.3-1.2-0.5c-1-0.6-1.4-1.1-1.4-1.7s0.6-1.2,1.5-1.7c0.4-0.3,0.9-0.5,1.4-0.6c0.5-0.2,0.9-0.3,1.4-0.3
			c0.5,0,1,0,1.5,0.1c0.5,0.1,1,0.3,1.4,0.6l0.3,0.2l-1.9,1.1c-0.5-0.3-0.9-0.4-1.3-0.5c-0.4,0-0.8,0-1.2,0.3
			c-0.2,0.1-0.4,0.3-0.5,0.4c-0.1,0.1-0.1,0.2-0.1,0.4c0,0.1,0.1,0.2,0.2,0.3c0.1,0.1,0.2,0.2,0.4,0.3c0.3,0.2,0.6,0.3,1,0.3
			c0.3,0,0.8,0,1.4-0.2l2.2-0.5c0.5-0.1,1-0.2,1.4-0.2c0.4,0,0.8,0,1.2,0c0.3,0,0.7,0.1,1,0.2c0.3,0.1,0.6,0.3,0.9,0.4
			c1,0.6,1.5,1.2,1.4,1.8c-0.1,0.6-0.7,1.2-1.8,1.9c-1.1,0.7-2.2,1-3.1,1s-1.9-0.3-2.8-0.8l-0.4-0.2l2-1.2L285.2,389.6z"/>
	</g>
	<path fill-rule="evenodd" clip-rule="evenodd" fill="#494646" d="M285.5,469c10.1,5.8,10,15.3-0.1,21.1
		c-10.1,5.8-26.5,5.9-36.5,0.1c-10.1-5.8-10-15.3,0.1-21.1C259.1,463.2,275.4,463.1,285.5,469z"/>
	<line fill="none" stroke="#494646" stroke-width="2" stroke-miterlimit="10" x1="282" y1="506.3" x2="405" y2="435.3"/>
	<line fill="none" stroke="#BFBFBF" stroke-miterlimit="10" x1="282.3" y1="506.7" x2="405.3" y2="435.7"/>
	<g>
		<path fill="#BFBFBF" d="M289.8,458.3l8.4,3.6l0,0l-6.1-4.9l1.9-1.1l8.4,3.5l0,0l-6.2-4.8l1.9-1.1l8,6.7l-2.2,1.3l-8.2-3.5l0,0
			l6,4.8l-2.2,1.3l-11.6-4.6L289.8,458.3z"/>
		<path fill="#BFBFBF" d="M305.8,450.9l-3.5,2l2.3,1.3l3.3-1.9l1.6,0.9l-3.3,1.9l2.6,1.5l3.7-2.1l1.6,0.9l-5.7,3.3l-9.8-5.7l5.5-3.2
			L305.8,450.9z"/>
		<path fill="#BFBFBF" d="M309.4,447l12.5,4.2l-2.1,1.2l-2.5-0.9l-2.6,1.5l1.6,1.5l-2.1,1.2l-7.2-7.2L309.4,447z M315.2,450.7
			l-5.4-2l0,0l3.5,3.1L315.2,450.7z"/>
		<path fill="#BFBFBF" d="M319,443.3l-2.2,1.2l8.2,4.7l-2,1.2l-8.2-4.7l-2.2,1.2L311,446l6.3-3.6L319,443.3z"/>
		<path fill="#BFBFBF" d="M319.9,440.9l3.8,2.2l2.3-1.3l-3.8-2.2l2-1.2l9.8,5.7l-2,1.2l-4.4-2.5l-2.3,1.3l4.4,2.5l-2,1.2l-9.8-5.7
			L319.9,440.9z"/>
		<path fill="#BFBFBF" d="M332.4,435.5l-3.5,2l2.3,1.3l3.3-1.9l1.6,0.9l-3.3,1.9l2.6,1.5l3.7-2.1l1.6,0.9l-5.7,3.3l-9.8-5.7l5.5-3.2
			L332.4,435.5z"/>
		<path fill="#BFBFBF" d="M335.2,432c0.8-0.5,1.7-0.7,2.6-0.8c0.9,0,1.7,0.2,2.6,0.7c0.7,0.4,1.1,0.8,1.2,1.2c0.2,0.4,0,0.8-0.4,1.2
			l0,0c0.6-0.2,1.1-0.4,1.6-0.4c0.5,0,1,0.2,1.6,0.4c0.2,0.1,0.4,0.2,0.6,0.3c0.2,0.1,0.5,0.3,0.8,0.4c0.5,0.3,1,0.5,1.3,0.6
			c0.3,0.1,0.6,0.2,0.9,0.1l0.1,0l-2.2,1.2c-0.2,0-0.5-0.1-0.7-0.2c-0.2-0.1-0.4-0.2-0.6-0.3l-1.9-1.1c-0.4-0.2-0.8-0.3-1.2-0.4
			c-0.4,0-0.8,0.1-1.2,0.3l-1.1,0.6l4.2,2.4l-2,1.2l-9.8-5.7L335.2,432z M338.7,435c0.5-0.3,0.7-0.6,0.8-0.8c0-0.3-0.2-0.6-0.7-0.9
			c-0.9-0.5-1.8-0.5-2.7,0l-0.9,0.5l2.8,1.6L338.7,435z"/>
	</g>
	<path fill-rule="evenodd" clip-rule="evenodd" fill="#494646" d="M352.6,507.7c10.1,5.8,10,15.3-0.1,21.1
		c-10.1,5.8-26.5,5.9-36.5,0.1c-10.1-5.8-10-15.3,0.1-21.1C326.2,501.9,342.5,501.9,352.6,507.7z"/>
	<line fill="none" stroke="#494646" stroke-width="2" stroke-miterlimit="10" x1="348.4" y1="545.3" x2="471.4" y2="474.3"/>
	<line fill="none" stroke="#BFBFBF" stroke-miterlimit="10" x1="349.6" y1="545.2" x2="472.5" y2="474.2"/>
	<g>
		<path fill="#BFBFBF" d="M359,495.8c0.7-0.4,1.4-0.7,2-0.8c0.6-0.1,1.3-0.1,2,0c0.7,0.1,1.3,0.3,2,0.6c0.7,0.3,1.4,0.6,2.1,1.1
			c0.9,0.5,1.6,1,2.1,1.4c0.5,0.4,0.9,0.8,1,1.2c0.2,0.4,0.1,0.8-0.1,1.1c-0.2,0.4-0.7,0.7-1.3,1.1l-3.1,1.8l-9.8-5.7L359,495.8z
			 M366.9,500.9c0.4-0.2,0.6-0.4,0.7-0.6c0.1-0.2,0.1-0.4-0.1-0.6c-0.2-0.2-0.4-0.5-0.8-0.8c-0.4-0.3-0.9-0.6-1.6-1
			c-0.6-0.3-1.1-0.6-1.5-0.8c-0.5-0.2-0.9-0.4-1.3-0.5c-0.4-0.1-0.8-0.1-1.1-0.1c-0.4,0-0.7,0.2-1.1,0.4l-0.8,0.5l6.9,4L366.9,500.9
			z"/>
		<path fill="#BFBFBF" d="M363.3,493.3l2-1.2l9.8,5.7l-2,1.2L363.3,493.3z"/>
		<path fill="#BFBFBF" d="M370.1,489.4c0.8-0.5,1.7-0.7,2.6-0.8c0.9,0,1.7,0.2,2.6,0.7c0.7,0.4,1.1,0.8,1.2,1.2
			c0.2,0.4,0,0.8-0.4,1.2l0,0c0.6-0.2,1.1-0.4,1.6-0.4c0.5,0,1,0.2,1.6,0.4c0.2,0.1,0.4,0.2,0.6,0.3c0.2,0.1,0.5,0.3,0.8,0.4
			c0.5,0.3,1,0.5,1.3,0.6c0.3,0.1,0.6,0.2,0.9,0.1l0.1,0l-2.2,1.2c-0.2,0-0.5-0.1-0.7-0.2c-0.2-0.1-0.4-0.2-0.6-0.3l-1.9-1.1
			c-0.4-0.2-0.8-0.3-1.2-0.4c-0.4,0-0.8,0.1-1.2,0.3l-1.1,0.6l4.2,2.4l-2,1.2l-9.8-5.7L370.1,489.4z M373.5,492.4
			c0.5-0.3,0.7-0.6,0.8-0.8c0-0.3-0.2-0.6-0.7-0.9c-0.9-0.5-1.8-0.5-2.7,0l-0.9,0.5l2.8,1.6L373.5,492.4z"/>
		<path fill="#BFBFBF" d="M380.9,485l-3.5,2l2.3,1.3l3.3-1.9l1.6,0.9l-3.3,1.9l2.6,1.5l3.7-2.1l1.6,0.9l-5.7,3.3l-9.8-5.7l5.5-3.2
			L380.9,485z"/>
		<path fill="#BFBFBF" d="M385.8,482.4c-0.5-0.1-1,0-1.4,0.3c-0.2,0.1-0.4,0.3-0.4,0.5c0,0.2,0.1,0.4,0.3,0.6c0.2,0.2,0.5,0.5,1,0.8
			c0.4,0.3,1,0.7,1.7,1.1c0.7,0.4,1.4,0.8,1.9,1c0.5,0.2,0.9,0.4,1.3,0.5c0.4,0.1,0.7,0.1,0.9,0.1c0.2,0,0.5-0.1,0.7-0.2
			c0.2-0.1,0.3-0.2,0.4-0.3c0.1-0.1,0.1-0.3,0-0.4c-0.1-0.2-0.2-0.4-0.5-0.6c-0.3-0.2-0.7-0.5-1.2-0.8l2-1.2c0.5,0.3,1,0.6,1.4,0.9
			s0.7,0.7,0.8,1c0.1,0.3,0.1,0.7-0.1,1c-0.2,0.4-0.6,0.7-1.3,1.1c-0.7,0.4-1.5,0.7-2.1,0.8c-0.7,0.1-1.4,0.1-2.1,0
			c-0.7-0.1-1.4-0.3-2.1-0.7c-0.7-0.3-1.4-0.7-2.2-1.1c-0.7-0.4-1.4-0.8-2-1.2c-0.6-0.4-0.9-0.8-1.2-1.2c-0.2-0.4-0.2-0.8,0-1.2
			c0.2-0.4,0.7-0.8,1.4-1.3c0.7-0.4,1.4-0.7,2-0.8c0.6-0.1,1.2-0.1,1.8,0c0.6,0.1,1.1,0.2,1.5,0.4s0.9,0.4,1.2,0.6l-2,1.2
			C386.9,482.7,386.3,482.4,385.8,482.4z"/>
		<path fill="#BFBFBF" d="M394.6,477.1l-2.2,1.2l8.2,4.7l-2,1.2l-8.2-4.7l-2.2,1.2l-1.6-0.9l6.3-3.6L394.6,477.1z"/>
		<path fill="#BFBFBF" d="M393.6,475.8l2-1.2l9.8,5.7l-2,1.2L393.6,475.8z"/>
		<path fill="#BFBFBF" d="M399.5,475.7c-0.6-0.4-0.9-0.8-1.2-1.2c-0.2-0.4-0.2-0.8,0-1.2c0.2-0.4,0.7-0.8,1.4-1.3
			c0.7-0.4,1.5-0.7,2.2-0.8c0.7-0.1,1.4-0.1,2.1,0c0.7,0.1,1.4,0.3,2.1,0.7c0.7,0.3,1.4,0.7,2.2,1.1c0.8,0.4,1.4,0.9,2,1.3
			c0.6,0.4,0.9,0.8,1.2,1.2c0.2,0.4,0.2,0.8,0,1.2c-0.2,0.4-0.7,0.8-1.4,1.2c-0.7,0.4-1.5,0.7-2.1,0.8c-0.7,0.1-1.4,0.1-2.1,0
			c-0.7-0.1-1.4-0.3-2.1-0.7c-0.7-0.3-1.4-0.7-2.2-1.1C400.7,476.6,400,476.1,399.5,475.7z M405.2,476.8c0.5,0.2,0.9,0.4,1.3,0.5
			s0.7,0.2,1,0.1c0.3,0,0.6-0.1,0.9-0.3c0.3-0.2,0.5-0.3,0.5-0.5c0-0.2,0-0.4-0.2-0.6c-0.2-0.2-0.5-0.5-0.9-0.8
			c-0.4-0.3-1-0.6-1.6-1c-0.7-0.4-1.2-0.7-1.7-0.9c-0.5-0.2-0.9-0.4-1.3-0.5c-0.4-0.1-0.7-0.2-1.1-0.1c-0.3,0-0.6,0.1-0.9,0.3
			c-0.3,0.2-0.5,0.3-0.5,0.5c0,0.2,0,0.4,0.2,0.6c0.2,0.2,0.5,0.5,0.9,0.8c0.4,0.3,1,0.6,1.6,1C404.1,476.2,404.7,476.5,405.2,476.8
			z"/>
		<path fill="#BFBFBF" d="M415.5,470.9L415.5,470.9l-6.7-3.9l1.8-1.1l9.8,5.7l-2.3,1.3l-9.3-2.6l0,0l6.9,4l-1.8,1.1l-9.8-5.7
			l2.3-1.3L415.5,470.9z"/>
		<path fill="#BFBFBF" d="M420.3,468.5c0.2,0.1,0.5,0.2,0.7,0.3c0.2,0.1,0.5,0.1,0.7,0.2c0.2,0,0.5,0,0.7-0.1
			c0.2-0.1,0.5-0.2,0.8-0.3c0.3-0.2,0.5-0.4,0.5-0.6c0-0.3-0.1-0.5-0.5-0.7c-0.2-0.1-0.4-0.2-0.7-0.3c-0.2-0.1-0.5-0.1-0.7-0.1
			c-0.3,0-0.6,0-0.9,0.1c-0.3,0.1-0.7,0.2-1.2,0.3c-0.6,0.2-1.1,0.3-1.6,0.4c-0.5,0.1-1,0.1-1.4,0.1c-0.5,0-0.9-0.1-1.3-0.2
			c-0.4-0.1-0.8-0.3-1.2-0.5c-1-0.6-1.4-1.1-1.4-1.7c0.1-0.6,0.6-1.2,1.5-1.7c0.4-0.3,0.9-0.5,1.4-0.6c0.5-0.2,0.9-0.3,1.4-0.3
			c0.5,0,1,0,1.5,0.1c0.5,0.1,1,0.3,1.4,0.6l0.3,0.2l-1.9,1.1c-0.5-0.3-0.9-0.4-1.3-0.5c-0.4,0-0.8,0-1.2,0.3
			c-0.2,0.1-0.4,0.3-0.5,0.4c-0.1,0.1-0.1,0.2-0.1,0.4c0,0.1,0.1,0.2,0.2,0.3c0.1,0.1,0.2,0.2,0.4,0.3c0.3,0.2,0.6,0.3,1,0.3
			c0.3,0,0.8,0,1.4-0.2l2.2-0.5c0.5-0.1,1-0.2,1.4-0.2c0.4,0,0.8,0,1.2,0c0.3,0,0.7,0.1,1,0.2c0.3,0.1,0.6,0.3,0.9,0.4
			c1,0.6,1.5,1.2,1.4,1.8c-0.1,0.6-0.7,1.2-1.8,1.9c-1.1,0.7-2.2,1-3.1,1c-1,0-1.9-0.3-2.8-0.8l-0.4-0.2l2-1.2L420.3,468.5z"/>
	</g>
	<path fill-rule="evenodd" clip-rule="evenodd" fill="#494646" d="M422.3,548c10.1,5.8,10,15.3-0.1,21.1
		c-10.1,5.8-26.5,5.9-36.5,0.1c-10.1-5.8-10-15.3,0.1-21.1C395.9,542.2,412.3,542.2,422.3,548z"/>
	<line fill="none" stroke="#494646" stroke-width="2" stroke-miterlimit="10" x1="418.9" y1="585.4" x2="541.9" y2="514.4"/>
	<line fill="none" stroke="#BFBFBF" stroke-miterlimit="10" x1="417.8" y1="585.5" x2="540.8" y2="514.5"/>
	<g>
		<path fill="#BFBFBF" d="M428.8,536c0.5-0.3,1-0.5,1.5-0.6c0.5-0.1,1-0.1,1.5-0.1c0.5,0,1,0.1,1.4,0.3c0.4,0.2,0.9,0.3,1.2,0.5
			c0.5,0.3,0.9,0.6,1.1,0.9c0.2,0.3,0.3,0.6,0.3,0.9c0,0.3-0.2,0.6-0.5,0.9c-0.3,0.3-0.6,0.6-1.1,0.8l-1.1,0.6l3.9,2.3l-2,1.2
			l-9.8-5.7L428.8,536z M432.6,538.9c0.4-0.2,0.6-0.5,0.6-0.8c0-0.3-0.2-0.6-0.7-0.9c-0.5-0.3-1-0.4-1.4-0.5c-0.5,0-1,0.1-1.5,0.4
			l-0.8,0.5l3,1.7L432.6,538.9z"/>
		<path fill="#BFBFBF" d="M435.8,531.9c0.8-0.5,1.7-0.7,2.6-0.8c0.9,0,1.7,0.2,2.6,0.7c0.7,0.4,1.1,0.8,1.2,1.2
			c0.2,0.4,0,0.8-0.4,1.2l0,0c0.6-0.2,1.1-0.4,1.6-0.4c0.5,0,1,0.2,1.6,0.4c0.2,0.1,0.4,0.2,0.6,0.3c0.2,0.1,0.5,0.3,0.8,0.4
			c0.5,0.3,1,0.5,1.3,0.6c0.3,0.1,0.6,0.2,0.9,0.1l0.1,0l-2.2,1.2c-0.2,0-0.5-0.1-0.7-0.2c-0.2-0.1-0.4-0.2-0.6-0.3l-1.9-1.1
			c-0.4-0.2-0.8-0.3-1.2-0.4c-0.4,0-0.8,0.1-1.2,0.3l-1.1,0.6l4.2,2.4l-2,1.2l-9.8-5.7L435.8,531.9z M439.3,534.9
			c0.5-0.3,0.7-0.6,0.8-0.8c0-0.3-0.2-0.6-0.7-0.9c-0.9-0.5-1.8-0.5-2.7,0l-0.9,0.5l2.8,1.6L439.3,534.9z"/>
		<path fill="#BFBFBF" d="M442.3,531.5c-0.6-0.4-0.9-0.8-1.2-1.2c-0.2-0.4-0.2-0.8,0-1.2c0.2-0.4,0.7-0.8,1.4-1.3
			c0.7-0.4,1.5-0.7,2.2-0.8c0.7-0.1,1.4-0.1,2.1,0c0.7,0.1,1.4,0.3,2.1,0.7c0.7,0.3,1.4,0.7,2.2,1.1c0.8,0.4,1.4,0.9,2,1.3
			c0.6,0.4,0.9,0.8,1.2,1.2c0.2,0.4,0.2,0.8,0,1.2c-0.2,0.4-0.7,0.8-1.4,1.2c-0.7,0.4-1.5,0.7-2.1,0.8c-0.7,0.1-1.4,0.1-2.1,0
			c-0.7-0.1-1.4-0.3-2.1-0.7c-0.7-0.3-1.4-0.7-2.2-1.1C443.5,532.4,442.8,531.9,442.3,531.5z M447.9,532.6c0.5,0.2,0.9,0.4,1.3,0.5
			c0.4,0.1,0.7,0.2,1,0.1c0.3,0,0.6-0.1,0.9-0.3c0.3-0.2,0.5-0.3,0.5-0.5c0-0.2,0-0.4-0.2-0.6c-0.2-0.2-0.5-0.5-0.9-0.8
			c-0.4-0.3-1-0.6-1.6-1s-1.2-0.7-1.7-0.9c-0.5-0.2-0.9-0.4-1.3-0.5c-0.4-0.1-0.7-0.2-1.1-0.1c-0.3,0-0.6,0.1-0.9,0.3
			c-0.3,0.2-0.5,0.3-0.5,0.5c0,0.2,0,0.4,0.2,0.6c0.2,0.2,0.5,0.5,0.9,0.8c0.4,0.3,1,0.6,1.6,1S447.4,532.3,447.9,532.6z"/>
		<path fill="#BFBFBF" d="M452.4,522.4l1.6,0.9l-3.5,2l2.3,1.3l3.3-1.9l1.6,0.9l-3.3,1.9l4.3,2.5l-2,1.2l-9.8-5.7L452.4,522.4z"/>
		<path fill="#BFBFBF" d="M453,522l2-1.2l9.8,5.7l-2,1.2L453,522z"/>
		<path fill="#BFBFBF" d="M456.2,520.2l2-1.2l8.2,4.7l3.5-2l1.6,0.9l-5.5,3.2L456.2,520.2z"/>
		<path fill="#BFBFBF" d="M469.4,514.5l-3.5,2l2.3,1.3l3.3-1.9l1.6,0.9l-3.3,1.9l2.6,1.5l3.7-2.1l1.6,0.9l-5.7,3.3l-9.8-5.7l5.5-3.2
			L469.4,514.5z"/>
	</g>
	<path fill="#BFBFBF" d="M194.7,430.2c-0.4,0.2-0.8,0.4-1.1,0.6c-2.7,1.5-2.8,2.9-2.5,4.8c-3.2-0.2-5.6-0.1-8.3,1.5
		c-0.3,0.2-0.7,0.4-1,0.7c-2.1,1.5-2.7,4.2,1.1,6.7l1.3,0.8c4.2,2.1,11.9,3.1,26.4,1.6c2.6-8.4,0.8-12.9-2.8-15.3l-1.3-0.8
		C202,428.7,197.3,429,194.7,430.2z M205,433c3.1,2.1,3.8,6.2,2.3,12c-10.1,0.9-17.1,0.4-20.8-1.3l-1.1-0.6c-2.4-1.7-1.9-3.3-0.9-4
		c0.3-0.2,0.5-0.4,0.8-0.5c1.5-0.9,2.6-1,5.4-0.9l4.3,0.2l-0.4-2.5c-0.2-1.6-0.1-2.2,1.5-3.1c0.3-0.1,0.5-0.3,0.9-0.4
		c1.2-0.6,4-0.9,6.9,0.5L205,433z"/>
	<g>
		<g>
			<path fill="#BFBFBF" d="M253.9,476.7c0.4-0.2,0.4-0.5,0-0.8l-1.3-0.8c-0.4-0.2-0.9-0.2-1.3,0c-0.4,0.2-0.4,0.5,0,0.8l1.3,0.8
				C253,476.9,253.6,476.9,253.9,476.7z"/>
			<path fill="#BFBFBF" d="M251.5,480.4c0.5,0,0.9-0.2,0.9-0.5c0-0.3-0.4-0.5-0.9-0.5l-1.8,0c-0.5,0-0.9,0.2-0.9,0.5
				c0,0.3,0.4,0.5,0.9,0.5L251.5,480.4z"/>
			<path fill="#BFBFBF" d="M253.9,482.7l-1.3,0.8c-0.4,0.2-0.4,0.5,0,0.8c0.4,0.2,0.9,0.2,1.3,0l1.3-0.8c0.4-0.2,0.4-0.5,0-0.8
				C254.8,482.5,254.2,482.5,253.9,482.7z"/>
			<path fill="#BFBFBF" d="M259.8,474.5l0-1.1c0-0.3-0.4-0.5-0.9-0.5l0,0c-0.5,0-0.9,0.2-0.9,0.5l0,1.1c0,0.3,0.4,0.5,0.9,0.5
				C259.4,475,259.8,474.8,259.8,474.5z"/>
			<path fill="#BFBFBF" d="M261.1,479.3l0.4-0.2c-0.2-0.9,0.1-1.8,0.7-2.7c-2-0.5-4.5-0.3-6.2,0.6c-2.2,1.3-2.2,3.3,0,4.5
				c0.9,0.5,1.9,0.8,3.1,0.9C258.8,481.3,259.6,480.2,261.1,479.3z"/>
			<path fill="#BFBFBF" d="M277.8,476.3c-0.3-0.3-0.6-0.5-1.1-0.8c-2.9-1.7-7.5-1.7-10.4,0c-2,1.2-2.6,2.9-1.8,4.3
				c-0.5,0.1-1,0.3-1.5,0.6c-1.8,1-1.8,2.7-0.1,3.7c-0.9,1.3-0.7,2.6,0.7,3.5c2.1,1.2,6.3,0.9,9.1-0.8l7.9-4.5
				c2.9-1.7,3.5-4,1.3-5.3C280.9,476.4,279.4,476.2,277.8,476.3z"/>
		</g>
	</g>
	<path fill="#BFBFBF" d="M342,512.2l-1.2,0.7l-1.9-0.5l1.6-0.9c0.4-0.2,0.4-0.6,0-0.8c-0.4-0.2-1-0.2-1.4,0l-2.1,1.2l-3.8-1.1
		c-1-0.3-2.4-0.1-3.2,0.3l-8.4,4.9c-0.8,0.4-1,1.3-0.5,1.8l1.9,2.2l-2.1,1.2c-0.4,0.2-0.4,0.6,0,0.8c0.4,0.2,1,0.2,1.4,0l1.6-0.9
		l0.9,1.1l-1.2,0.7c-0.4,0.2-0.4,0.6,0,0.8l4.2,2.4c0.4,0.2,1,0.2,1.4,0l0.7-0.4l2.8,1.6c0.8,0.4,2,0.4,2.8,0l1.4-0.8
		c0.8-0.4,0.8-1.2,0-1.6l-2.8-1.6l8.4-4.9l2.8,1.6c0.8,0.4,2,0.4,2.8,0l1.4-0.8c0.8-0.4,0.8-1.2,0-1.6l-2.8-1.6l0.7-0.4
		c0.4-0.2,0.4-0.6,0-0.8l-4.2-2.4C343,512,342.4,512,342,512.2z M322.9,517.2c-0.1-0.1,0-0.4,0.1-0.5l2.8-1.6l0.7,0.4
		c0.4,0.2,1,0.2,1.4,0l1.4-0.8c0.4-0.2,0.4-0.6,0-0.8l-0.7-0.4l2.8-1.6c0.2-0.1,0.7-0.1,0.9-0.1l7,2l-13,7.5L322.9,517.2z
		 M331.4,523.2c-0.8,0.4-2,0.5-2.8,0c-0.8-0.4-0.8-1.2,0-1.6c0.8-0.4,2-0.5,2.8,0C332.2,522,332.2,522.7,331.4,523.2z M339.9,518.3
		l-5.6,3.3l-1.4-0.8l5.6-3.3L339.9,518.3z M342.7,516.7c-0.8,0.4-2,0.5-2.8,0s-0.8-1.2,0-1.6c0.8-0.4,2-0.5,2.8,0
		C343.5,515.5,343.5,516.2,342.7,516.7z"/>
	<g>
		<path fill="#BFBFBF" d="M410.8,555.9c-0.3-1.2-1.2-2.4-2.8-3.3c-3.9-2.3-10.4-2.3-14.3,0c-2,1.2-3,2.7-3,4.2c0,0.1,0,0.1,0,0.2
			c0,0.1,0,0.2,0,0.3c0.1,1,1.8,2.8,1.8,2.8c0.3,0.3,0.7,0.5,1.1,0.8c1.6,0.9,3.6,1.5,5.7,1.6c-0.6,2.4,0.7,4.8,3.8,6.6l7.2-4.2
			l-2.4-2.8l-1.2-0.7l2.4-1.4l1.2,0.7l4.8,1.4l7.2-4.2C419.2,556.2,414.9,555.5,410.8,555.9z M406.7,560.1c-3.3,1.9-8.7,1.9-12,0
			c-0.6-0.3-1-0.7-1.4-1.1c0.9-1.3,1-2.7,0.3-4c2.9,0.2,6-0.4,8.3-1.7c0.7-0.4,1.2-0.8,1.7-1.3c1.1,0.2,2.2,0.6,3.1,1.1
			C410.1,555.1,410.1,558.2,406.7,560.1z"/>
		<path fill="#BFBFBF" d="M397.5,557.6c-0.6,0.3-0.6,0.9,0,1.2s1.5,0.3,2.1,0c0.6-0.3,0.6-0.9,0-1.2
			C399,557.2,398.1,557.2,397.5,557.6z"/>
		<path fill="#BFBFBF" d="M402.1,554.9c-0.6,0.3-0.6,0.9,0,1.2c0.6,0.3,1.5,0.3,2.1,0c0.6-0.3,0.6-0.9,0-1.2
			C403.7,554.5,402.7,554.5,402.1,554.9z"/>
	</g>
</g>
<g id="baseText">
	<polygon fill-rule="evenodd" clip-rule="evenodd" fill="#D1C2A6" points="1046.1,550.7 671.2,704.2 671.2,707.2 725.6,738.7 
		1046.1,553.7 	"/>
	<polygon fill-rule="evenodd" clip-rule="evenodd" fill="#EFF0DF" points="991.6,519.2 671.2,704.2 725.6,735.7 1046.1,550.7 	"/>
	<g>
		<path fill="#D1C2A6" d="M756.6,678.8l2.6,1.5l-5.7,3.3l3.8,2.2l5.4-3.1l2.6,1.5l-5.4,3.1l6.9,4l-3.2,1.9l-16-9.2L756.6,678.8z"/>
		<path fill="#D1C2A6" d="M757.7,678.2l3.2-1.9l16,9.2l-3.2,1.9L757.7,678.2z"/>
		<path fill="#D1C2A6" d="M781.4,677.2L781.4,677.2l-10.9-6.3l3-1.7l16,9.2l-3.7,2.1l-15.2-4.2l0,0l11.2,6.5l-3,1.7l-16-9.2l3.7-2.2
			L781.4,677.2z"/>
		<path fill="#D1C2A6" d="M780.6,665c1.1-0.6,2.2-1.1,3.3-1.3c1.1-0.2,2.1-0.2,3.2,0c1.1,0.2,2.1,0.5,3.2,1c1.1,0.5,2.2,1.1,3.4,1.7
			c1.4,0.8,2.5,1.6,3.4,2.3c0.9,0.7,1.4,1.4,1.7,2c0.3,0.6,0.2,1.2-0.2,1.8c-0.4,0.6-1.1,1.2-2.2,1.8l-5.1,3l-16-9.2L780.6,665z
			 M793.6,673.2c0.6-0.3,0.9-0.6,1.1-1c0.2-0.3,0.1-0.7-0.1-1c-0.2-0.4-0.7-0.8-1.4-1.3c-0.7-0.5-1.5-1-2.6-1.6
			c-0.9-0.5-1.7-1-2.5-1.3c-0.7-0.4-1.4-0.6-2.1-0.8c-0.6-0.2-1.3-0.2-1.9-0.1c-0.6,0.1-1.2,0.3-1.8,0.7l-1.4,0.8l11.2,6.5
			L793.6,673.2z"/>
		<path fill="#D1C2A6" d="M793.5,657.5c1.4-0.8,2.7-1.2,4.2-1.2c1.4,0,2.8,0.3,4.2,1.1c1.1,0.6,1.7,1.3,2,1.9c0.2,0.6,0,1.3-0.7,1.9
			l0,0c0.9-0.4,1.8-0.6,2.6-0.6c0.8,0,1.7,0.3,2.6,0.7c0.3,0.2,0.7,0.3,1,0.5c0.4,0.2,0.8,0.4,1.2,0.7c0.9,0.5,1.6,0.8,2.1,1
			c0.5,0.2,1,0.3,1.5,0.2l0.1,0.1l-3.5,2c-0.4,0-0.8-0.1-1.1-0.3c-0.3-0.1-0.7-0.3-1-0.5l-3.2-1.7c-0.7-0.3-1.3-0.5-2-0.6
			c-0.6,0-1.3,0.1-2,0.5l-1.7,1l6.8,3.9l-3.2,1.9l-16-9.2L793.5,657.5z M799.1,662.4c0.8-0.5,1.2-0.9,1.3-1.4
			c0.1-0.5-0.4-0.9-1.2-1.4c-1.5-0.9-3-0.8-4.5,0l-1.5,0.9l4.6,2.7L799.1,662.4z"/>
		<path fill="#D1C2A6" d="M821.3,654l-6.3,3.7l-2.6-1.5l6.3-3.7L821.3,654z"/>
		<path fill="#D1C2A6" d="M828.1,640.6l-3.5,2l13.3,7.7l-3.2,1.9l-13.3-7.7l-3.5,2l-2.6-1.5l10.3-5.9L828.1,640.6z"/>
		<path fill="#D1C2A6" d="M829.5,636.7l6.1,3.5l3.8-2.2l-6.1-3.5l3.2-1.9l16,9.2l-3.2,1.9l-7.1-4.1l-3.8,2.2l7.1,4.1l-3.2,1.9
			l-16-9.2L829.5,636.7z"/>
		<path fill="#D1C2A6" d="M849.9,628l-5.7,3.3l3.8,2.2l5.4-3.1l2.6,1.5l-5.4,3.1l4.3,2.5l6-3.4l2.6,1.5l-9.2,5.3l-16-9.2l9-5.2
			L849.9,628z"/>
		<path fill="#D1C2A6" d="M867.4,628.1c0.4,0.2,0.7,0.4,1.1,0.5s0.7,0.2,1.1,0.3c0.4,0,0.8,0,1.2-0.1c0.4-0.1,0.8-0.3,1.2-0.5
			c0.5-0.3,0.8-0.6,0.9-1.1c0.1-0.4-0.2-0.8-0.9-1.2c-0.4-0.2-0.7-0.4-1.1-0.5c-0.4-0.1-0.8-0.1-1.2-0.1c-0.4,0-0.9,0.1-1.5,0.2
			c-0.5,0.1-1.2,0.3-1.9,0.5c-1,0.3-1.8,0.5-2.7,0.6c-0.8,0.1-1.6,0.2-2.3,0.2c-0.7,0-1.4-0.1-2.1-0.3c-0.7-0.2-1.3-0.5-2-0.9
			c-1.6-0.9-2.3-1.8-2.2-2.8c0.1-1,0.9-1.9,2.5-2.8c0.7-0.4,1.5-0.8,2.2-1c0.8-0.3,1.5-0.4,2.3-0.5c0.8-0.1,1.6,0,2.4,0.2
			c0.8,0.2,1.6,0.5,2.3,0.9l0.4,0.3l-3.1,1.8c-0.8-0.4-1.5-0.7-2.2-0.8c-0.7-0.1-1.3,0.1-2,0.4c-0.4,0.2-0.6,0.4-0.7,0.6
			c-0.1,0.2-0.2,0.4-0.2,0.6c0,0.2,0.1,0.4,0.3,0.5c0.2,0.2,0.4,0.3,0.6,0.4c0.5,0.3,1,0.5,1.6,0.5c0.5,0.1,1.3,0,2.3-0.2l3.6-0.8
			c0.9-0.2,1.7-0.3,2.3-0.4c0.7-0.1,1.3-0.1,1.9,0c0.6,0.1,1.1,0.2,1.6,0.4c0.5,0.2,1,0.4,1.5,0.7c1.7,1,2.4,2,2.2,3
			c-0.2,1-1.2,2-3,3c-1.8,1.1-3.5,1.6-5.1,1.6c-1.6,0-3.1-0.4-4.6-1.3l-0.6-0.4l3.2-1.9L867.4,628.1z"/>
		<path fill="#D1C2A6" d="M869,619.3c-0.9-0.7-1.5-1.3-1.9-1.9c-0.3-0.6-0.4-1.3-0.1-1.9c0.3-0.7,1.1-1.3,2.3-2
			c1.2-0.7,2.4-1.1,3.5-1.3c1.1-0.2,2.3-0.2,3.4,0c1.1,0.2,2.2,0.6,3.4,1.1c1.1,0.5,2.3,1.1,3.5,1.8c1.2,0.7,2.3,1.4,3.2,2
			c0.9,0.7,1.5,1.3,1.9,1.9c0.3,0.6,0.4,1.3,0,1.9c-0.3,0.6-1.1,1.3-2.3,2c-1.2,0.7-2.4,1.1-3.5,1.3c-1.1,0.2-2.2,0.2-3.3,0
			c-1.1-0.2-2.2-0.6-3.4-1.1s-2.3-1.1-3.5-1.8C870.9,620.7,869.9,620,869,619.3z M878.2,621c0.8,0.4,1.5,0.7,2.2,0.9
			c0.6,0.2,1.2,0.2,1.7,0.2c0.5,0,1-0.2,1.5-0.5c0.5-0.3,0.8-0.6,0.8-0.9c0.1-0.3,0-0.6-0.4-1c-0.3-0.4-0.8-0.8-1.5-1.2
			c-0.7-0.5-1.6-1-2.7-1.6c-1.1-0.6-2-1.1-2.8-1.5c-0.8-0.4-1.5-0.7-2.2-0.9c-0.6-0.2-1.2-0.3-1.7-0.2c-0.5,0-1,0.2-1.5,0.5
			c-0.5,0.3-0.8,0.6-0.8,0.9c-0.1,0.3,0,0.6,0.4,1c0.3,0.4,0.8,0.8,1.5,1.2c0.7,0.5,1.6,1,2.7,1.6
			C876.5,620.1,877.4,620.6,878.2,621z"/>
		<path fill="#D1C2A6" d="M885.8,607.6c-0.8-0.1-1.6,0-2.3,0.4c-0.4,0.2-0.6,0.5-0.7,0.8c0,0.3,0.1,0.6,0.4,1
			c0.3,0.4,0.9,0.8,1.6,1.3c0.7,0.5,1.7,1.1,2.8,1.7c1.2,0.7,2.2,1.2,3.1,1.6c0.8,0.4,1.5,0.6,2.1,0.8c0.6,0.1,1.1,0.2,1.5,0.1
			c0.4-0.1,0.8-0.2,1.1-0.4c0.3-0.2,0.5-0.3,0.7-0.5c0.1-0.2,0.2-0.4,0.1-0.7c-0.1-0.3-0.4-0.6-0.8-1c-0.4-0.4-1.1-0.8-1.9-1.3
			l3.2-1.9c0.9,0.5,1.6,1,2.3,1.5c0.6,0.5,1.1,1.1,1.3,1.6c0.2,0.5,0.2,1.1-0.2,1.7c-0.3,0.6-1,1.2-2.1,1.8
			c-1.2,0.7-2.4,1.1-3.5,1.3c-1.1,0.2-2.2,0.2-3.3,0c-1.1-0.2-2.2-0.6-3.4-1.1c-1.1-0.5-2.3-1.1-3.5-1.8c-1.2-0.7-2.3-1.4-3.2-2
			c-0.9-0.7-1.5-1.3-1.9-1.9c-0.3-0.6-0.4-1.3-0.1-1.9c0.3-0.7,1.1-1.3,2.3-2c1.2-0.7,2.3-1.1,3.3-1.3c1-0.2,2-0.2,2.9,0
			c0.9,0.1,1.7,0.4,2.5,0.7c0.7,0.3,1.4,0.7,2,1l-3.2,1.9C887.5,608.1,886.6,607.7,885.8,607.6z"/>
		<path fill="#D1C2A6" d="M888.1,602.9l3.2-1.9l16,9.2l-3.2,1.9L888.1,602.9z"/>
		<path fill="#D1C2A6" d="M900.4,595.8l20.2,6.8l-3.4,2l-4.1-1.5l-4.3,2.5l2.6,2.4l-3.4,1.9l-11.7-11.7L900.4,595.8z M909.9,601.8
			l-8.7-3.2l0,0l5.6,5L909.9,601.8z"/>
		<path fill="#D1C2A6" d="M905.2,593.1l3.2-1.9l13.3,7.7l5.7-3.3l2.6,1.5l-9,5.2L905.2,593.1z"/>
		<path fill="#D1C2A6" d="M926.2,580.9l20.2,6.8l-3.4,1.9l-4.1-1.5l-4.3,2.5l2.6,2.4l-3.4,2l-11.7-11.7L926.2,580.9z M935.7,586.9
			l-8.7-3.2l0,0l5.6,5L935.7,586.9z"/>
		<path fill="#D1C2A6" d="M936.7,574.9c0.8-0.5,1.7-0.8,2.5-1c0.8-0.2,1.7-0.2,2.4-0.2c0.8,0.1,1.6,0.2,2.3,0.5
			c0.7,0.2,1.4,0.5,2,0.9c0.8,0.5,1.4,1,1.8,1.5s0.5,1,0.5,1.5c-0.1,0.5-0.3,1-0.7,1.4c-0.4,0.5-1,0.9-1.8,1.4l-1.7,1l6.4,3.7
			l-3.2,1.9l-16-9.2L936.7,574.9z M942.9,579.6c0.6-0.4,1-0.8,1-1.2c0-0.5-0.4-0.9-1.2-1.4c-0.8-0.5-1.6-0.7-2.4-0.8
			c-0.8,0-1.5,0.2-2.4,0.6l-1.4,0.8l4.9,2.8L942.9,579.6z"/>
		<path fill="#D1C2A6" d="M947.8,568.4c0.8-0.5,1.7-0.8,2.5-1c0.8-0.2,1.7-0.2,2.4-0.2c0.8,0.1,1.6,0.2,2.3,0.5
			c0.7,0.2,1.4,0.5,2,0.9c0.8,0.5,1.4,1,1.8,1.5c0.4,0.5,0.5,1,0.5,1.5c-0.1,0.5-0.3,1-0.7,1.4c-0.4,0.5-1,0.9-1.8,1.4l-1.7,1
			l6.4,3.7l-3.2,1.9l-16-9.2L947.8,568.4z M954,573.2c0.6-0.4,1-0.8,1-1.2s-0.4-0.9-1.2-1.4c-0.8-0.5-1.6-0.7-2.4-0.8
			c-0.8,0-1.5,0.2-2.4,0.6l-1.4,0.8l4.9,2.8L954,573.2z"/>
	</g>
</g>
<g id="header">
	<path fill-rule="evenodd" clip-rule="evenodd" fill="#B74328" d="M609,298.5L252.7,462.7l-0.1,3l36,20.8l132-76.2
		c16.2,5.6,36.8,4.2,50.6-3.7c13.8-7.9,16.2-19.8,6.4-29.2L609,301.5V298.5z"/>
	<path fill-rule="evenodd" clip-rule="evenodd" fill="#D75537" d="M573.1,277.7l-320.4,185l36,20.8l132-76.2
		c16.2,5.6,36.8,4.2,50.6-3.7c13.8-7.9,16.3-19.8,6.5-29.2l131.4-75.9L573.1,277.7z"/>
	<g id="burger">
		<path fill="#FFFFFF" d="M290.9,453.1l-13.9,8c-0.3,0.1-0.3,0.4,0,0.5l2.8,1.6c0.3,0.1,0.7,0.1,0.9,0l13.9-8c0.3-0.1,0.3-0.4,0-0.5
			l-2.8-1.6C291.6,452.9,291.2,452.9,290.9,453.1z"/>
		<path fill="#FFFFFF" d="M296.5,456.3l-13.9,8c-0.3,0.1-0.3,0.4,0,0.5l2.8,1.6c0.3,0.1,0.7,0.1,0.9,0l13.9-8c0.3-0.1,0.3-0.4,0-0.5
			l-2.8-1.6C297.1,456.1,296.7,456.1,296.5,456.3z"/>
		<path fill="#FFFFFF" d="M302,459.4l-13.9,8c-0.3,0.1-0.3,0.4,0,0.5l2.8,1.6c0.3,0.1,0.7,0.1,0.9,0l13.9-8c0.3-0.1,0.3-0.4,0-0.5
			l-2.8-1.6C302.6,459.3,302.2,459.3,302,459.4z"/>
	</g>
	<polygon id="burgerBtn" fill="#FFFFFF" points="268,460.4 291.4,447.1 312.9,460.3 287.9,474.3 	"/>
</g>
<g id="disc">
	<path fill-rule="evenodd" clip-rule="evenodd" fill="#99A2A4" d="M467.7,373.8c13.7,7.9,13.6,20.8-0.2,28.8
		c-13.8,8-36.1,8-49.8,0.1s-13.6-20.8,0.2-28.8C431.7,365.9,454,365.9,467.7,373.8z"/>
	<path fill-rule="evenodd" clip-rule="evenodd" fill="#E9E9E9" d="M467.7,370.8c13.7,7.9,13.6,20.8-0.2,28.8
		c-13.8,8-36.1,8-49.8,0.1s-13.6-20.8,0.2-28.8C431.7,362.9,454,362.9,467.7,370.8z"/>
</g>
<path id="thumb" fill="#525250" d="M427.3,375.1c0.2-1.5,1.5-2.6,3-2.5l4.1,0.4l0-0.1l-3.3-0.3c-1.3-0.1-2.3-1.5-2.1-3
	c0.2-1.5,1.4-2.6,2.7-2.5l10.9,1.1l1.5,0c0,0-2.2-1-0.5-9.1c1.7-8.1,6.2-5.1,6.2-5.1s0.1,6.9,0.3,7.9c0.2,1,5.6,11.3,5.6,11.3
	c0,0.5,3.3,1.1,3.3,1.6c0,4.8,0,8.8,0,13.8c-3.5-0.9-5.4,1.8-13,1.8c-2.5,0-5.5-0.4-8.1-0.8l-6.8-0.7c-1.2-0.1-2-1.4-1.9-3
	c0.1-1.2,0.8-2.1,1.6-2.4l-0.9-0.1c-1.3-0.1-2.3-1.5-2.2-3c0.1-1.3,1.1-2.3,2.2-2.4l-0.3,0C428.2,378,427.1,376.6,427.3,375.1z"/>
<g id="chatPin">
	<polygon fill="#FFFFFF" points="732,22 732,79 753,79 753,97 784.5,79 809,79 810.2,22 	"/>
	<path fill="#F4A04E" d="M728.1,18.6v65.9h22v22l30.9-22h35V18.6H728.1z M805,73.5h-22l-22,16.5V73.5h-22V29.6H805V73.5z"/>
	<g>
		<g>
			<path fill="#F4A04E" d="M783.5,57.9c-4.8,1.8-8.7,5.4-10.8,10.1h14.4C787.1,64.2,785.7,60.7,783.5,57.9z"/>
		</g>
		<g>
			<path fill="#F4A04E" d="M758.7,57.9c-2.3,2.8-3.6,6.3-3.6,10.1h14.4C767.4,63.3,763.5,59.7,758.7,57.9z"/>
		</g>
		<g>
			<path fill="#F4A04E" d="M782.6,51.2c0.5,0.9,1.3,1.7,2.4,2.3c0.6,0.3,1.2,0.5,1.8,0.6c1-3.6-0.6-7.4-3.9-9.2
				c-0.1,0.1-0.4-0.6-0.6-1.1c0-0.1,0-0.1-0.1-0.2c-0.2-0.6-0.5-1.1-0.8-1.6c0-0.1-0.1-0.1-0.1-0.2c-0.3-0.5-0.7-1-1.1-1.5
				c0,0-0.1-0.1-0.1-0.1c-0.8-0.9-1.8-1.7-2.9-2.4c-0.1,0-0.1-0.1-0.2-0.1c-0.5-0.3-1.1-0.6-1.7-0.8c-0.1,0-0.1-0.1-0.2-0.1
				c-0.6-0.2-1.2-0.4-1.8-0.5c0,0-0.1,0-0.1,0c-0.7-0.1-1.3-0.2-2-0.2l0,0c0,0-0.1,0-0.1,0c0,0-0.1,0-0.1,0c0,0,0,0,0,0
				c-0.7,0-1.4,0.1-2,0.2c0,0-0.1,0-0.1,0c-0.6,0.1-1.2,0.3-1.8,0.5c-0.1,0-0.2,0.1-0.2,0.1c-0.6,0.2-1.1,0.5-1.7,0.8
				c-0.1,0-0.1,0.1-0.2,0.1c-1.1,0.6-2,1.4-2.9,2.4c0,0-0.1,0.1-0.1,0.1c-0.4,0.5-0.7,0.9-1.1,1.4c-0.1,0.1-0.1,0.2-0.1,0.2
				c-0.3,0.5-0.6,1.1-0.8,1.6c0,0.1,0,0.1-0.1,0.2c-0.2,0.4-0.5,1.1-0.6,1.1c-3.4,1.8-4.9,5.7-3.9,9.2c0.6-0.1,1.2-0.3,1.8-0.6
				c1-0.5,1.8-1.3,2.4-2.3c1.4,5.1,6,8.8,11.6,8.8C776.6,60,781.3,56.3,782.6,51.2z M771.1,58c-5.5,0-10-4.5-10-10
				c0-0.7,0.1-1.4,0.2-2.1c0.3,0,0.5,0.1,0.8,0.1c4.6,0,8.4-3.5,8.9-8c0,0,0.1,0,0.1,0c0,0,0.1,0,0.1,0c0.5,4.5,4.3,8,8.9,8
				c0.3,0,0.5,0,0.8-0.1c0.1,0.7,0.2,1.4,0.2,2.1C781.1,53.5,776.6,58,771.1,58z"/>
		</g>
		<g>
			<circle fill="#F4A04E" cx="767.1" cy="48.3" r="1.8"/>
		</g>
		<g>
			<circle fill="#F4A04E" cx="774.8" cy="48.3" r="1.8"/>
		</g>
	</g>
</g>
<g opacity="0.5">
	<g>
		<line fill="none" stroke="#444342" stroke-miterlimit="10" x1="253.5" y1="206" x2="253.5" y2="210"/>
		<line fill="none" stroke="#444342" stroke-miterlimit="10" stroke-dasharray="8,8" x1="253.5" y1="217" x2="253.5" y2="548"/>
		<line fill="none" stroke="#444342" stroke-miterlimit="10" x1="253.5" y1="552" x2="253.5" y2="556"/>
	</g>
</g>
<g opacity="0.5">
	<g>
		<line fill="none" stroke="#444342" stroke-miterlimit="10" x1="725.5" y1="386" x2="725.5" y2="390"/>
		<line fill="none" stroke="#444342" stroke-miterlimit="10" stroke-dasharray="8,8" x1="725.5" y1="397" x2="725.5" y2="728"/>
		<line fill="none" stroke="#444342" stroke-miterlimit="10" x1="725.5" y1="732" x2="725.5" y2="736"/>
	</g>
</g>
</svg>
